<?xml version="1.0" encoding="UTF-8"?> <svg xmlns="http://www.w3.org/2000/svg" width="974" height="944" viewBox="0 0 974 944" fill="none"><g clip-path="url(#clip0_3612_1809)"><path d="M166.041 296.411H327.175V602.779C327.175 611.582 323.728 620.025 317.592 626.25C311.456 632.475 303.134 635.972 294.457 635.972H199.086C190.408 635.972 182.087 632.475 175.951 626.25C169.815 620.025 166.368 611.582 166.368 602.779V296.411H166.041Z" fill="#4A90E2"></path><path d="M4.41627 52.2784L179.946 374.247L321.612 331.927L146.247 17.924C143.265 12.4807 138.901 7.94721 133.607 4.79501C128.314 1.64281 122.285 -0.0129478 116.147 -4.72588e-05H34.3528C28.3448 0.065802 22.4567 1.71407 17.2656 4.78324C12.0744 7.85241 7.75826 12.2372 4.74007 17.5079C1.72188 22.7786 0.105186 28.7544 0.0484231 34.8497C-0.00834005 40.9451 1.49677 46.9508 4.41627 52.2784Z" fill="#4A90E2"></path><g opacity="0.64"><path d="M358.257 0C335.136 60.0788 310.435 119.549 284.152 178.411C271.065 207.952 257.432 237.162 243.255 266.039C236.057 280.478 228.696 294.917 221.007 309.024C217.081 315.994 212.991 322.965 208.574 329.769C204.486 336.935 199.48 343.52 193.688 349.353C190.732 352.183 187.137 354.234 183.218 355.328C179.428 356.811 175.23 356.811 171.44 355.328C168.923 354.267 166.924 352.238 165.878 349.685C166.484 350.818 167.324 351.804 168.34 352.577C169.357 353.351 170.526 353.893 171.767 354.166C175.275 354.958 178.931 354.758 182.335 353.588C185.738 352.417 188.76 350.321 191.07 347.527C196.305 341.777 200.862 335.428 204.648 328.608C208.901 321.803 212.664 314.667 216.426 307.53C223.951 293.423 231.149 279.15 238.184 264.546C252.089 235.668 265.339 206.459 278.917 177.249L358.257 0Z" fill="#4A90E2"></path></g><path d="M464.915 0H379.196C373.004 0.0934322 366.965 1.96771 361.782 5.40501C356.598 8.84231 352.483 13.7015 349.913 19.4177L263.048 220.897C263.048 220.897 212.663 333.089 189.598 350.515C186.865 353.199 183.296 354.832 179.504 355.135C175.712 355.438 171.935 354.391 168.822 352.174L167.513 351.013L166.041 348.523V566.765C227.877 608.422 279.244 449.429 318.668 372.422C330.937 348.689 340.589 329.935 353.185 306.037L492.889 47.9634C495.324 43.0038 496.496 37.5047 496.299 31.9677C496.101 26.4306 494.541 21.0317 491.76 16.2632C488.979 11.4947 485.066 7.50841 480.377 4.66772C475.688 1.82702 470.372 0.222347 464.915 0Z" fill="#4A90E2"></path><g opacity="0.3"><path d="M327.176 355.825C312.785 392.997 296.402 429.342 278.099 464.697C269.102 482.621 259.45 500.048 248.817 516.976C239.051 534.411 226.877 550.339 212.664 564.276C208.017 568.837 202.43 572.295 196.306 574.399C189.951 576.444 183.074 576.03 177.002 573.238C174.841 572.461 172.866 571.232 171.203 569.631C169.54 568.03 168.228 566.092 167.351 563.944C168.388 565.862 169.789 567.554 171.474 568.921C173.158 570.288 175.093 571.304 177.166 571.91C182.976 574.067 189.351 574.067 195.16 571.91C200.902 569.613 206.131 566.17 210.538 561.786C217.377 554.921 223.566 547.42 229.023 539.381C234.749 531.415 239.983 522.785 245.382 514.652C255.361 498.056 264.849 480.132 274.173 462.706C291.677 427.356 309.181 391.674 327.176 355.825Z" fill="#4A90E2"></path></g><path d="M973.673 514.487C973.673 514.487 987.905 626.014 858.017 635.972C836.432 637.306 814.767 635.799 793.563 631.491C765.917 625.682 702.609 601.451 696.556 535.232C696.373 533.358 696.579 531.466 697.163 529.679C697.746 527.892 698.693 526.248 699.942 524.856C701.191 523.463 702.715 522.353 704.414 521.595C706.114 520.838 707.951 520.452 709.807 520.461H769.352C772.758 520.334 776.118 521.289 778.963 523.194C781.808 525.098 783.996 527.856 785.22 531.083C789.243 541.092 796.366 549.5 805.515 555.039C814.664 560.578 825.34 562.946 835.933 561.786C846.383 561.576 856.616 558.724 865.705 553.488C870.701 550.92 874.822 546.889 877.534 541.918C880.247 536.947 881.426 531.265 880.919 525.606C879.283 506.852 841.167 496.397 824.318 494.073C823.5 493.907 929.341 433.33 973.673 514.487Z" fill="#4A90E2"></path><path d="M947.826 389.682H887.462C884.786 389.732 882.157 388.968 879.912 387.489C877.668 386.01 875.91 383.884 874.866 381.384C871.398 371.564 864.452 363.405 855.38 358.497C846.308 353.588 835.76 352.281 825.79 354.83C798.634 359.311 785.384 386.861 802.724 400.47C821.69 409.978 841.747 417.058 862.434 421.547C906.929 435.488 960.586 445.778 973.346 514.321C973.346 514.321 980.053 578.051 932.122 611.575C934.085 608.588 962.713 563.612 942.591 524.942C936.772 513.112 927.75 503.21 916.581 496.397C907.439 489.963 896.98 485.71 885.988 483.957C874.997 482.204 863.756 482.995 853.109 486.273C853.109 486.273 682.16 476.481 702.609 370.098C718.967 287.117 823.336 258.239 907.747 295.415C922.027 302.375 934.593 312.484 944.527 325.003C954.462 337.523 961.513 352.136 965.166 367.775C965.696 370.403 965.647 373.117 965.025 375.724C964.403 378.332 963.222 380.768 961.567 382.859C959.911 384.951 957.821 386.646 955.447 387.826C953.072 389.005 950.47 389.639 947.826 389.682Z" fill="#4A90E2"></path><path d="M880.428 482.953C880.428 482.953 752.011 488.098 707.843 420.219C707.843 420.219 726.819 484.447 833.642 495.069C849.666 492.984 865.379 488.915 880.428 482.953Z" fill="#4A90E2"></path><g opacity="0.93"><path d="M934.739 605.435C941.314 593.383 945.692 580.227 947.663 566.599C949.659 553.169 947.546 539.44 941.61 527.266C938.133 521.294 934.018 515.729 929.341 510.669C922.077 502.334 913.133 495.679 903.114 491.155C893.094 486.631 882.234 484.343 871.268 484.447C854.909 483.451 840.677 483.12 825.463 481.792C810.203 480.675 795.143 477.608 780.64 472.664C766.396 467.967 752.896 461.203 740.561 452.582C728.783 444.132 718.308 433.952 709.479 422.377C728.536 445.006 753.564 461.645 781.622 470.34C795.986 474.831 810.801 477.67 825.79 478.805C841.004 479.966 856.217 480.132 871.595 480.962C887.021 481.604 902.04 486.169 915.273 494.239C921.335 498.356 926.835 503.267 931.631 508.844C936.494 514.112 940.622 520.031 943.9 526.436C949.651 539.028 951.367 553.132 948.808 566.765C946.484 580.418 941.716 593.524 934.739 605.435Z" fill="#4A90E2"></path></g><path d="M521.027 475.485V421.049H596.604C593.782 403.338 584.489 387.355 570.574 376.283C556.659 365.211 539.144 359.863 521.517 361.302C510.548 360.647 499.566 362.365 489.3 366.343C479.034 370.32 469.719 376.465 461.972 384.371C452.516 393.539 445.143 404.688 440.369 417.042C435.594 429.395 433.532 442.657 434.325 455.902C434.307 471.13 437.138 486.223 442.668 500.38C457.391 539.547 483.456 559.131 520.863 559.131C538.487 560.728 556.114 556.096 570.757 546.02C593.005 547.015 614.435 510.835 621.469 519.465L668.092 564.276C654.351 592.489 643.717 590.498 624.25 604.937C595.294 625.778 560.441 636.496 524.953 635.474C499.458 636.908 473.968 632.558 450.339 622.739C426.71 612.921 405.535 597.881 388.357 578.714C358.807 544.639 342.827 500.618 343.534 455.238C343.042 414.085 356.498 374.009 381.65 341.719C414.368 299.675 460.99 278.708 521.517 278.819C555.725 277.925 589.426 287.339 618.361 305.871C647.49 324.297 669.671 352.118 681.343 384.869C682.651 388.354 683.796 396.321 684.778 400.138C695.575 439.305 664.329 469.179 624.087 469.179L521.027 475.485Z" fill="#4A90E2"></path><path d="M403.407 585.353C403.407 580.208 401.771 577.221 401.28 572.242C400.75 560.691 401.463 549.116 403.407 537.721C405.931 527.618 410.438 518.135 416.657 509.84C422.207 500.756 429.629 492.999 438.415 487.103C439.233 489.426 439.396 487.103 440.378 490.09C445.708 507.837 456.554 523.359 471.296 534.336C486.038 545.314 503.885 551.159 522.171 550.998C540.493 550.998 560.778 554.152 611.49 517.806C627.031 506.686 668.746 557.139 668.746 564.276C668.746 574.233 648.788 590.166 629.321 604.605C598.816 625.716 562.52 636.519 525.607 635.474C482.998 637.184 441.094 624.066 406.842 598.298C405.697 594.315 403.898 589.17 403.407 585.353Z" fill="#4A90E2"></path><path d="M659.585 487.6H463.28C450.725 488.429 438.689 492.997 428.679 500.731C418.67 508.466 411.131 519.023 407.006 531.083C400.953 540.045 400.953 576.723 407.006 597.468C388.746 582.384 373.702 563.687 362.79 542.517C351.878 521.346 345.326 498.144 343.534 474.323C345.334 462.374 357.766 426.858 440.378 420.717C440.378 420.717 571.248 420.717 598.24 420.717C605.601 420.717 612.308 420.717 618.525 420.717C628.456 420.509 638.357 419.51 648.134 417.73C655.566 415.935 662.483 412.405 668.334 407.421C674.184 402.436 678.806 396.135 681.833 389.018C686.577 400.636 701.136 451.42 686.414 473.659C683.371 477.995 679.345 481.525 674.676 483.951C670.007 486.377 664.831 487.629 659.585 487.6Z" fill="#4A90E2"></path><path opacity="0.34" d="M596.604 420.717C604.637 421.684 612.727 422.072 620.814 421.879C628.947 421.881 637.059 421.047 645.025 419.39C653.229 417.937 660.874 414.202 667.11 408.602C673.935 403.268 679.288 396.236 682.651 388.188C678.403 395.376 672.852 401.684 666.292 406.776C660.114 411.645 652.879 414.946 645.189 416.402C637.37 418.045 629.441 419.099 621.469 419.556C612.799 420.219 605.274 420.551 596.604 420.717Z" fill="#4A90E2"></path><path opacity="0.34" d="M451.993 488.264C440.399 490.819 429.708 496.523 421.063 504.767C412.419 513.011 406.146 523.484 402.916 535.066C400.097 545.43 399.046 556.207 399.808 566.931C400.626 572.242 401.281 577.553 402.262 583.527C403.244 589.502 405.207 593.983 407.006 599.128C406.188 593.817 405.207 588.506 404.389 583.361C403.571 578.217 403.571 572.906 403.244 566.765C402.958 556.319 404.339 545.895 407.333 535.896C410.316 525.309 415.63 515.549 422.874 507.35C431.051 498.858 441.001 492.336 451.993 488.264Z" fill="#4A90E2"></path><path opacity="0.34" d="M438.905 420.883C357.112 427.19 343.861 461.71 344.352 475.817C346.72 467.84 350.488 460.362 355.476 453.744C378.109 432.351 407.973 420.588 438.905 420.883Z" fill="#4A90E2"></path><path d="M246.527 889.398C297.392 889.398 338.626 847.565 338.626 795.961C338.626 744.356 297.392 702.523 246.527 702.523C195.661 702.523 154.427 744.356 154.427 795.961C154.427 847.565 195.661 889.398 246.527 889.398Z" fill="#F5A623"></path><path d="M976.782 814.331V834.94C976.782 837.678 976.514 839.878 975.978 841.54C975.441 843.154 974.442 844.621 972.979 845.941C971.564 847.261 969.736 848.532 967.492 849.755C961.006 853.275 954.764 855.842 948.766 857.456C942.768 859.069 936.233 859.876 929.162 859.876C920.92 859.876 913.41 858.605 906.631 856.062C899.853 853.52 894.074 849.828 889.295 844.987C884.516 840.147 880.834 834.28 878.249 827.385C875.713 820.491 874.445 812.79 874.445 804.283C874.445 795.922 875.689 788.27 878.176 781.327C880.663 774.384 884.321 768.492 889.148 763.651C893.976 758.811 899.853 755.119 906.778 752.577C913.703 749.985 921.554 748.69 930.332 748.69C937.549 748.69 943.938 749.668 949.497 751.623C955.057 753.53 959.568 755.951 963.03 758.884C966.493 761.818 969.102 764.923 970.857 768.199C972.613 771.475 973.491 774.384 973.491 776.926C973.491 779.664 972.466 782.011 970.418 783.967C968.419 785.874 966.005 786.827 963.176 786.827C961.616 786.827 960.104 786.461 958.641 785.727C957.227 784.994 956.032 783.967 955.057 782.647C952.375 778.442 950.107 775.264 948.254 773.113C946.401 770.961 943.889 769.152 940.719 767.685C937.598 766.218 933.599 765.485 928.723 765.485C923.7 765.485 919.213 766.365 915.263 768.125C911.313 769.837 907.924 772.355 905.095 775.679C902.316 778.955 900.17 782.989 898.658 787.781C897.195 792.573 896.464 797.878 896.464 803.696C896.464 816.311 899.341 826.016 905.095 832.813C910.898 839.609 918.969 843.007 929.308 843.007C934.331 843.007 939.037 842.347 943.426 841.027C947.864 839.707 952.35 837.824 956.886 835.38V817.924H940.061C936.013 817.924 932.941 817.313 930.844 816.091C928.796 814.868 927.772 812.79 927.772 809.857C927.772 807.461 928.625 805.481 930.332 803.916C932.088 802.351 934.453 801.569 937.428 801.569H962.079C965.103 801.569 967.663 801.838 969.76 802.376C971.857 802.914 973.539 804.112 974.807 805.97C976.124 807.828 976.782 810.615 976.782 814.331Z" fill="black"></path><path d="M793.322 761.745L835.091 825.112V761.158C835.091 757.002 835.969 753.897 837.724 751.843C839.529 749.741 841.943 748.69 844.966 748.69C848.087 748.69 850.55 749.741 852.354 751.843C854.159 753.897 855.061 757.002 855.061 761.158V845.721C855.061 855.158 851.16 859.876 843.357 859.876C841.406 859.876 839.651 859.582 838.09 858.996C836.53 858.458 835.067 857.578 833.701 856.355C832.336 855.133 831.068 853.715 829.897 852.102C828.727 850.439 827.556 848.752 826.386 847.041L785.641 784.407V847.408C785.641 851.515 784.69 854.62 782.789 856.722C780.887 858.825 778.448 859.876 775.474 859.876C772.401 859.876 769.939 858.825 768.085 856.722C766.232 854.571 765.306 851.466 765.306 847.408V764.458C765.306 760.938 765.696 758.175 766.476 756.171C767.403 753.97 768.939 752.186 771.085 750.817C773.23 749.399 775.547 748.69 778.034 748.69C779.984 748.69 781.643 749.008 783.008 749.643C784.422 750.279 785.641 751.134 786.666 752.21C787.738 753.286 788.811 754.679 789.884 756.391C791.006 758.102 792.152 759.887 793.322 761.745Z" fill="black"></path><path d="M718.929 846.601V761.891C718.929 757.491 719.928 754.19 721.928 751.99C723.927 749.79 726.512 748.69 729.682 748.69C732.949 748.69 735.583 749.79 737.582 751.99C739.63 754.141 740.654 757.442 740.654 761.891V846.601C740.654 851.05 739.63 854.375 737.582 856.575C735.583 858.776 732.949 859.876 729.682 859.876C726.561 859.876 723.976 858.776 721.928 856.575C719.928 854.326 718.929 851.001 718.929 846.601Z" fill="black"></path><path d="M620.615 750.523H648.924C656.288 750.523 662.603 751.208 667.87 752.577C673.137 753.946 677.916 756.513 682.208 760.278C693.375 769.861 698.959 784.432 698.959 803.989C698.959 810.443 698.398 816.335 697.276 821.665C696.155 826.994 694.424 831.81 692.083 836.113C689.742 840.367 686.743 844.181 683.085 847.554C680.208 850.146 677.063 852.224 673.649 853.788C670.235 855.353 666.553 856.453 662.603 857.089C658.702 857.724 654.289 858.042 649.363 858.042H621.054C617.104 858.042 614.129 857.456 612.13 856.282C610.13 855.06 608.814 853.373 608.18 851.221C607.594 849.021 607.302 846.185 607.302 842.714V763.871C607.302 759.178 608.35 755.779 610.447 753.677C612.544 751.574 615.933 750.523 620.615 750.523ZM629.027 767.759V840.734H645.486C649.095 840.734 651.923 840.636 653.972 840.44C656.02 840.245 658.141 839.756 660.336 838.973C662.53 838.191 664.432 837.091 666.041 835.673C673.308 829.512 676.941 818.902 676.941 803.843C676.941 793.233 675.331 785.287 672.113 780.007C668.943 774.726 665.017 771.377 660.336 769.959C655.654 768.492 649.997 767.759 643.365 767.759H629.027Z" fill="black"></path><path d="M535.687 748.69C546.806 748.69 556.34 750.963 564.289 755.51C572.287 760.009 578.334 766.438 582.43 774.799C586.527 783.111 588.575 792.89 588.575 804.136C588.575 812.448 587.453 820.002 585.21 826.799C582.967 833.595 579.602 839.487 575.115 844.474C570.629 849.461 565.118 853.275 558.583 855.915C552.049 858.556 544.563 859.876 536.126 859.876C527.738 859.876 520.228 858.531 513.596 855.842C506.964 853.104 501.429 849.266 496.991 844.327C492.553 839.389 489.188 833.448 486.896 826.505C484.653 819.562 483.531 812.057 483.531 803.989C483.531 795.726 484.702 788.148 487.042 781.253C489.432 774.359 492.87 768.492 497.357 763.651C501.843 758.811 507.305 755.119 513.742 752.577C520.179 749.985 527.494 748.69 535.687 748.69ZM566.557 803.989C566.557 796.117 565.289 789.297 562.753 783.527C560.217 777.757 556.584 773.406 551.853 770.472C547.172 767.49 541.783 765.998 535.687 765.998C531.347 765.998 527.324 766.83 523.618 768.492C519.96 770.105 516.79 772.477 514.108 775.606C511.475 778.735 509.378 782.745 507.817 787.634C506.305 792.475 505.549 797.926 505.549 803.989C505.549 810.101 506.305 815.626 507.817 820.565C509.378 825.503 511.548 829.61 514.327 832.886C517.156 836.113 520.375 838.533 523.983 840.147C527.641 841.76 531.64 842.567 535.98 842.567C541.539 842.567 546.635 841.174 551.268 838.387C555.95 835.6 559.656 831.297 562.387 825.479C565.167 819.66 566.557 812.497 566.557 803.989Z" fill="black"></path><path d="M468.974 824.085C468.974 827.508 468.121 831.224 466.414 835.233C464.756 839.193 462.123 843.105 458.514 846.968C454.905 850.781 450.297 853.886 444.689 856.282C439.08 858.678 432.546 859.876 425.084 859.876C419.427 859.876 414.282 859.338 409.65 858.262C405.017 857.187 400.798 855.524 396.995 853.275C393.24 850.977 389.777 847.97 386.607 844.254C383.779 840.88 381.365 837.115 379.365 832.959C377.366 828.754 375.854 824.281 374.83 819.538C373.855 814.795 373.367 809.759 373.367 804.429C373.367 795.775 374.611 788.025 377.098 781.18C379.634 774.335 383.242 768.492 387.924 763.651C392.606 758.762 398.092 755.046 404.383 752.503C410.674 749.961 417.379 748.69 424.499 748.69C433.18 748.69 440.909 750.425 447.688 753.897C454.466 757.368 459.66 761.671 463.269 766.805C466.877 771.89 468.682 776.706 468.682 781.253C468.682 783.747 467.804 785.947 466.048 787.854C464.293 789.761 462.171 790.715 459.684 790.715C456.905 790.715 454.808 790.054 453.393 788.734C452.028 787.414 450.492 785.141 448.785 781.914C445.957 776.584 442.616 772.599 438.763 769.959C434.96 767.319 430.254 765.998 424.645 765.998C415.721 765.998 408.601 769.397 403.286 776.193C398.019 782.989 395.385 792.646 395.385 805.163C395.385 813.524 396.556 820.491 398.897 826.065C401.237 831.59 404.554 835.722 408.845 838.46C413.136 841.198 418.159 842.567 423.914 842.567C430.156 842.567 435.423 841.027 439.714 837.947C444.055 834.817 447.322 830.246 449.516 824.232C450.443 821.396 451.589 819.098 452.955 817.338C454.32 815.529 456.515 814.624 459.538 814.624C462.123 814.624 464.342 815.529 466.195 817.338C468.048 819.147 468.974 821.396 468.974 824.085Z" fill="black"></path><path d="M714.405 938.873C709.292 942.942 704.178 944.976 699.227 944.976C689.893 944.976 684.698 939.524 684.698 932.688C684.698 919.83 699.552 920.807 713.594 916.656C713.594 910.146 711.077 908.274 705.883 908.274C700.932 908.274 697.685 909.658 696.224 912.425C694.519 915.599 693.627 916.738 691.11 916.738C688.838 916.738 686.646 915.029 686.646 912.669C686.646 907.298 692.328 900.869 705.558 900.869C718.869 900.869 724.389 904.205 724.389 918.203L724.145 928.375C724.145 934.56 726.256 938.466 726.256 940.663C726.256 942.942 723.902 944.976 721.304 944.976C719.113 944.976 716.84 942.942 714.405 938.873ZM713.675 923.167C712.051 923.818 709.373 924.55 705.639 925.283C698.415 926.748 695.493 928.131 695.493 931.956C695.493 935.13 698.01 937.896 702.555 937.896C704.828 937.896 707.019 937.327 709.129 935.943C713.35 933.176 713.675 930.41 713.675 923.167Z" fill="#9B9B9B"></path><path d="M665.405 909.658H649.659V929.596C649.659 941.07 645.844 944.732 638.295 944.732C632.451 944.732 629.448 943.268 629.448 939.28C629.448 936.757 630.828 935.537 633.507 935.537C634.399 935.537 635.536 935.699 635.942 935.699C638.214 935.699 638.945 934.56 638.945 930.41V908.356C638.945 903.799 640.812 901.764 645.438 901.764H669.707C674.333 901.764 676.2 903.799 676.2 908.437V938.141C676.2 943.349 673.522 944.977 670.681 944.977C668.084 944.977 665.405 943.268 665.405 938.141V909.658Z" fill="#9B9B9B"></path><path d="M605.218 900.869C618.611 900.869 626.809 910.228 626.809 922.923C626.809 935.699 618.367 944.976 605.462 944.976C591.501 944.976 583.628 935.536 583.628 922.923C583.628 910.228 591.826 900.869 605.218 900.869ZM605.218 936.92C611.712 936.92 615.851 931.712 615.851 922.923C615.851 914.134 611.712 908.925 605.218 908.925C598.725 908.925 594.585 914.215 594.585 922.923C594.585 931.712 598.725 936.92 605.218 936.92Z" fill="#9B9B9B"></path><path d="M546.744 938.141V907.623C546.744 903.148 548.611 900.869 552.263 900.869C554.861 900.869 557.539 902.659 557.539 907.623V919.016C560.38 919.016 561.273 918.203 563.708 911.285C566.873 902.496 570.282 901.52 575.152 901.52C580.915 901.52 581.402 903.554 581.402 905.426C581.402 907.786 579.941 909.007 576.938 909.088C573.123 909.251 572.799 910.065 571.175 915.192C569.958 919.016 568.253 921.458 565.899 922.353C568.984 923.248 572.23 926.341 574.99 931.793L577.344 936.432C578.237 938.141 578.724 939.524 578.724 940.582C578.724 943.186 576.613 944.976 573.691 944.976C570.607 944.976 569.065 943.512 567.279 939.361L563.951 931.793C562.003 927.317 560.461 926.096 557.539 926.015V938.141C557.539 942.698 555.754 944.976 552.101 944.976C549.098 944.976 546.744 942.779 546.744 938.141Z" fill="#9B9B9B"></path><path d="M490.482 907.705V936.106H502.657V907.705C502.657 902.578 505.254 900.869 508.095 900.869C510.611 900.869 513.371 902.578 513.371 907.705V936.106H525.465V907.705C525.465 902.578 528.143 900.869 530.984 900.869C533.581 900.869 536.26 902.578 536.26 907.705V937.408C536.26 942.21 534.312 944 529.685 944H486.261C481.635 944 479.687 941.884 479.687 937.408V907.705C479.687 902.822 482.203 900.869 485.206 900.869C487.803 900.869 490.482 902.578 490.482 907.705Z" fill="#9B9B9B"></path><path d="M430.916 894.847V935.211C430.916 939.199 430.916 941.721 429.212 943.268C428.4 944 426.939 944.977 425.072 944.977C423.53 944.977 421.907 944.326 420.77 943.268C419.147 941.721 419.228 939.199 419.228 935.211V894.847H408.514C405.186 894.847 403.076 895.01 401.858 893.626C401.128 892.894 400.397 891.917 400.397 890.29C400.397 889.069 400.884 887.93 401.777 886.953C403.076 885.57 405.186 885.732 408.514 885.732H441.549C444.877 885.732 446.987 885.57 448.205 886.953C448.935 887.686 449.666 888.744 449.666 890.29C449.666 891.592 449.097 892.731 448.286 893.626C446.987 895.01 444.877 894.847 441.549 894.847H430.916Z" fill="#9B9B9B"></path><path d="M392.729 894.521V935.211C392.729 939.443 392.81 941.559 391.268 943.186C390.375 944.081 388.914 944.977 386.966 944.977C385.424 944.977 383.8 944.326 382.583 943.186C380.96 941.721 381.041 939.361 381.041 935.211V894.521C381.041 890.29 381.041 888.174 382.583 886.628C383.476 885.732 384.937 884.756 386.885 884.756C388.427 884.756 390.05 885.407 391.187 886.546C392.81 888.174 392.729 890.371 392.729 894.521Z" fill="#9B9B9B"></path></g><defs><clipPath id="clip0_3612_1809"><rect width="974" height="944" fill="white"></rect></clipPath></defs></svg> 